<svg width="39" height="39" viewBox="0 0 39 39" fill="none" xmlns="http://www.w3.org/2000/svg">
<path d="M29.1527 23.46C29.3548 23.5135 29.5505 23.5798 29.7388 23.6579C29.9313 23.7377 30.117 23.8296 30.2949 23.9327L31.0855 23.1421L31.0855 23.1421C31.264 22.9636 31.5533 22.9636 31.7318 23.1421L31.7334 23.1438L32.8017 24.212L32.8017 24.212C32.9802 24.3904 32.9802 24.6798 32.8018 24.8583L32.7992 24.8608L32.0111 25.6488C32.1141 25.8268 32.206 26.0124 32.2858 26.2048C32.3639 26.3932 32.4301 26.5889 32.4837 26.7911H33.6023C33.8547 26.7911 34.0594 26.9957 34.0594 27.2481V28.7613C34.0594 29.0137 33.8547 29.2183 33.6023 29.2183H32.4838C32.4302 29.4204 32.3639 29.6161 32.2858 29.8045C32.2061 29.9969 32.1142 30.1826 32.0112 30.3605L32.8017 31.1511L32.8018 31.1511C32.9802 31.3295 32.9802 31.6189 32.8018 31.7974L32.8001 31.799L31.7318 32.8673L31.4086 32.5442L31.7318 32.8673C31.5533 33.0458 31.2639 33.0458 31.0855 32.8673L31.083 32.8648L30.2949 32.0767C30.117 32.1797 29.9313 32.2717 29.7388 32.3514C29.5505 32.4295 29.3548 32.4958 29.1527 32.5494V33.6679C29.1527 33.9203 28.9481 34.125 28.6957 34.125H27.1825C26.9301 34.125 26.7255 33.9203 26.7255 33.6679V32.5494C26.5234 32.4958 26.3277 32.4295 26.1394 32.3514C25.947 32.2717 25.7612 32.1797 25.5833 32.0767L24.7927 32.8673L24.7927 32.8673C24.6143 33.0458 24.3249 33.0458 24.1464 32.8673L24.1439 32.8648L23.0765 31.7974L23.3997 31.4742L23.0765 31.7974C22.898 31.6189 22.898 31.3295 23.0765 31.151L23.079 31.1486L23.8671 30.3605C23.7641 30.1826 23.6722 29.997 23.5924 29.8045C23.5143 29.6162 23.448 29.4204 23.3944 29.2183H22.2759C22.0235 29.2183 21.8188 29.0137 21.8188 28.7613V27.2481C21.8188 26.9957 22.0235 26.7911 22.2759 26.7911H23.3944C23.448 26.589 23.5143 26.3933 23.5923 26.205C23.6721 26.0125 23.7641 25.8268 23.8671 25.6489L23.0765 24.8583L23.0765 24.8583C22.898 24.6799 22.898 24.3905 23.0765 24.212L23.079 24.2095L24.1464 23.1421L24.1464 23.1421C24.3249 22.9636 24.6142 22.9636 24.7927 23.1421L24.7944 23.1438L25.5832 23.9326C25.7611 23.8296 25.9468 23.7377 26.1393 23.6579C26.3276 23.5799 26.5234 23.5135 26.7255 23.46V22.3415C26.7255 22.0891 26.9301 21.8844 27.1825 21.8844H28.6957C28.9481 21.8844 29.1527 22.0891 29.1527 22.3415V23.46L29.1527 23.46ZM29.3889 24.5006C29.1519 24.4024 28.9055 24.3277 28.6527 24.2795C28.4204 24.2578 28.2386 24.0624 28.2386 23.8245V22.7985H27.6396V23.8196C27.6422 24.0388 27.4863 24.2342 27.2634 24.2743L27.1825 23.8245L27.2629 24.2726C26.9969 24.3204 26.7379 24.3975 26.4892 24.5006C26.2444 24.6021 26.0115 24.7294 25.794 24.879C25.6149 25.0146 25.3587 25.0007 25.1954 24.8374L25.1955 24.8374L24.4696 24.1115L24.0459 24.5351L24.7653 25.2545C24.9249 25.4073 24.9541 25.6578 24.8241 25.845L24.4487 25.5842L24.8236 25.8448C24.6696 26.0666 24.5388 26.3045 24.435 26.5549C24.3368 26.7919 24.2621 27.0383 24.214 27.2911C24.1923 27.5234 23.9969 27.7052 23.759 27.7052H22.7329V28.3042H23.7532C23.9727 28.3012 24.1686 28.4571 24.2088 28.6803L23.759 28.7612L24.2071 28.6809C24.2549 28.9468 24.332 29.2059 24.4351 29.4546C24.5366 29.6994 24.6638 29.9322 24.8133 30.1496C24.949 30.3287 24.9352 30.585 24.7719 30.7483L24.7718 30.7483L24.0459 31.4742L24.4696 31.8979L25.1897 31.1777C25.3427 31.0189 25.5925 30.9899 25.7794 31.1198L25.5186 31.4951L25.7793 31.1202C26.001 31.2742 26.2389 31.405 26.4893 31.5088C26.7263 31.607 26.9728 31.6817 27.2256 31.7299C27.4578 31.7516 27.6396 31.947 27.6396 32.1849V33.2109H28.2386V32.1898C28.236 31.9706 28.3919 31.7751 28.6148 31.7351L28.6957 32.1849L28.6153 31.7368C28.8812 31.689 29.1403 31.6119 29.3889 31.5088C29.6337 31.4073 29.8664 31.2801 30.0838 31.1306C30.2629 30.9948 30.5194 31.0085 30.6828 31.1719L30.6827 31.172L31.4086 31.8979L31.8323 31.4742L31.1121 30.7541C30.9533 30.6011 30.9244 30.3512 31.0542 30.1644L31.4295 30.4252L31.0546 30.1645C31.2087 29.9428 31.3394 29.705 31.4432 29.4545C31.5414 29.2175 31.6161 28.9709 31.6643 28.718C31.686 28.4859 31.8814 28.3042 32.1193 28.3042H33.1453V27.7052H32.125C31.9055 27.7082 31.7096 27.5522 31.6694 27.329L32.1192 27.2481L31.6711 27.3285C31.6233 27.0625 31.5462 26.8034 31.4431 26.5547C31.3416 26.3099 31.2144 26.0771 31.0648 25.8596C30.9292 25.6805 30.9431 25.4243 31.1064 25.261L31.1064 25.261L31.8323 24.5351L31.4086 24.1115L30.6885 24.8317C30.5356 24.9905 30.2857 25.0194 30.0988 24.8896L30.3596 24.5143L30.0989 24.8892C29.8772 24.7351 29.6393 24.6044 29.3889 24.5006H29.3889Z" fill="#B5F200"/>
<path d="M27.9391 25.0306C28.7603 25.0306 29.5038 25.3636 30.042 25.9017C30.5802 26.4399 30.9131 27.1835 30.9131 28.0047C30.9131 28.8258 30.5802 29.5694 30.042 30.1076C29.5038 30.6457 28.7603 30.9787 27.9391 30.9787C27.1179 30.9787 26.3744 30.6457 25.8362 30.1076C25.298 29.5694 24.9651 28.8259 24.9651 28.0047C24.9651 27.1835 25.298 26.4399 25.8362 25.9017C26.3744 25.3636 27.1179 25.0306 27.9391 25.0306ZM29.3958 26.548C29.023 26.1753 28.508 25.9447 27.9391 25.9447C27.3702 25.9447 26.8552 26.1753 26.4825 26.548C26.1097 26.9208 25.8792 27.4358 25.8792 28.0047C25.8792 28.5735 26.1097 29.0886 26.4825 29.4613C26.8552 29.834 27.3702 30.0646 27.9391 30.0646C28.508 30.0646 29.023 29.834 29.3958 29.4613C29.7685 29.0886 29.9991 28.5735 29.9991 28.0047C29.9991 27.4358 29.7685 26.9208 29.3958 26.548Z" fill="#B5F200"/>
<path d="M11.8002 20.9413H12.6649C12.7884 20.9413 12.9004 20.9903 12.9826 21.0698C13.363 21.378 13.762 21.6244 14.1745 21.7909C14.5591 21.9461 14.9575 22.0314 15.3651 22.0314C15.7728 22.0314 16.1711 21.9461 16.5557 21.7909C16.9785 21.6202 17.3872 21.3657 17.7761 21.0467L17.7755 21.045C17.8605 20.9752 17.9633 20.9413 18.0653 20.9414V20.9413H18.0664H18.9301C20.7945 20.9413 22.491 21.6947 23.7304 22.9119L23.0841 23.5581C22.01 22.5062 20.5422 21.8554 18.9301 21.8554H18.2229C17.8014 22.1844 17.3572 22.4505 16.8949 22.6371C16.4018 22.8362 15.8901 22.9454 15.3651 22.9454C14.8401 22.9454 14.3284 22.8362 13.8353 22.6371C13.373 22.4505 12.9289 22.1844 12.5073 21.8554H11.8002C10.1656 21.8554 8.67934 22.5244 7.60153 23.6023C6.52371 24.6801 5.85469 26.1664 5.85469 27.8009V31.1854H22.5309C22.3761 31.6532 22.4468 31.8138 22.7324 32.0995H5.39764C5.14524 32.0995 4.94061 31.8948 4.94061 31.6424V27.8009C4.94061 25.914 5.71219 24.199 6.95524 22.956C8.19829 21.7129 9.9133 20.9413 11.8002 20.9413H11.8002Z" fill="white"/>
<path d="M15.3651 4.87497C17.383 4.87497 19.2113 5.36131 20.5024 6.3937C21.6885 7.3422 22.4127 8.73124 22.4127 10.6021C22.4127 12.6675 21.5049 15.432 20.0683 17.5161C18.8315 19.3104 17.1915 20.6207 15.3651 20.6207C13.5387 20.6207 11.8986 19.3104 10.6618 17.5161C9.22528 15.432 8.31744 12.6675 8.31744 10.6021C8.31744 8.73124 9.04163 7.34219 10.2278 6.3937C11.5188 5.36131 13.3471 4.87497 15.3651 4.87497H15.3651ZM19.9346 7.10425C18.8166 6.21021 17.1878 5.78903 15.3651 5.78903C13.5424 5.78903 11.9136 6.21021 10.7955 7.10425C9.82444 7.88078 9.23154 9.03384 9.23154 10.6021C9.23154 12.5032 10.0758 15.0603 11.4117 16.9984C12.4906 18.5637 13.8783 19.7067 15.3651 19.7067C16.8519 19.7067 18.2396 18.5637 19.3185 16.9984C20.6544 15.0603 21.4986 12.5032 21.4986 10.6021C21.4986 9.03385 20.9057 7.88079 19.9346 7.10425H19.9346Z" fill="white"/>
</svg>
