<svg width="20" height="20" viewBox="0 0 20 20" fill="none" xmlns="http://www.w3.org/2000/svg">
<path d="M11.7839 10.0001L19.8693 1.9152C20.0433 1.74096 20.0433 1.45863 19.8693 1.28439L18.7161 0.13063C18.6325 0.0471953 18.5187 0 18.4005 0C18.2821 0 18.1685 0.0471953 18.0849 0.13063L9.99976 8.21577L1.91462 0.13063C1.74712 -0.0368713 1.45068 -0.0366606 1.2836 0.13063L0.130682 1.28439C-0.0435608 1.45863 -0.0435608 1.74096 0.130682 1.9152L8.21582 10.0001L0.130682 18.0851C-0.0435608 18.2593 -0.0435608 18.5416 0.130682 18.7159L1.28381 19.8696C1.36745 19.9531 1.48102 20.0003 1.59942 20.0003C1.71783 20.0003 1.83119 19.9531 1.91483 19.8696L9.99997 11.7845L18.0851 19.8696C18.1688 19.9531 18.2825 20.0003 18.4007 20.0003C18.5189 20.0003 18.6327 19.9531 18.7164 19.8696L19.8695 18.7159C20.0435 18.5416 20.0435 18.2593 19.8695 18.0851L11.7839 10.0001Z" fill="#072441"/>
</svg>
