<svg width="99" height="95" viewBox="0 0 99 95" fill="none" xmlns="http://www.w3.org/2000/svg">
<path d="M93.6633 13.4797H91.9617V27.711H93.6633V13.4797ZM93.0445 27.7883C89.9508 27.1695 89.1 32.4289 91.575 33.2797C91.9617 33.9758 91.7297 35.6774 91.7297 36.7602C91.7297 40.0086 92.2711 44.5719 90.5695 45.9641C89.0226 47.2016 86.857 46.1188 86.3156 44.6492C86.0836 44.0305 86.1609 43.1024 86.1609 42.3289C86.4703 42.3289 86.7023 42.3289 87.0117 42.3289C87.0117 41.7102 84.8461 37.7656 84.382 37.2242C84.382 37.1469 84.382 37.1469 84.382 37.0695C83.9953 37.9203 84.3047 39.9313 84.3047 41.0914C84.3047 42.6383 84.2273 44.3399 84.614 45.4227C85.4648 47.5883 88.5586 49.6766 91.2656 47.975C94.282 46.0414 93.7406 42.4836 93.7406 37.4563C93.7406 36.1414 93.7406 34.8266 93.8179 33.5117C94.2047 32.893 94.9781 32.661 95.2875 31.8875C95.9836 29.7219 94.514 28.0977 93.0445 27.7883Z" fill="white"/>
<path d="M79.1227 36.6055C77.1891 36.6055 75.7195 38.2297 75.7195 40.1633C75.7195 42.0969 77.2664 43.7211 79.1227 43.7211C80.9789 43.7211 82.5258 42.0969 82.5258 40.1633C82.5258 38.2297 80.9789 36.6055 79.1227 36.6055ZM98.6133 44.6492C91.807 35.9867 80.4375 28.407 70.1508 25.1586C66.2836 24.6945 62.3391 24.2305 58.4719 23.7664C51.2016 20.75 37.125 12.3969 37.125 12.3969L42.6164 25.932C42.6164 25.932 25.2141 34.4398 16.4742 38.7711C12.143 37.6109 6.34219 29.2578 1.39219 26.6281C1.16016 26.6281 0.928125 26.6281 0.696094 26.6281C2.70703 39.5445 4.95 59.3445 0 70.7914C0 71.0234 0 71.2555 0 71.4875C8.50781 70.7141 13.6898 62.0516 17.8664 58.6484C23.5898 61.5102 35.0367 67.1563 35.0367 67.1563L30.7828 73.4211C30.7828 73.4211 39.832 69.5539 45.3234 69.2445C51.743 68.8578 56.6156 70.8688 57.6984 70.6367C57.0023 73.2664 56.3063 75.8188 55.6102 78.4484C58.3945 78.3711 63.4992 70.4047 70.7695 68.4711C85.1555 64.6813 92.4258 58.107 97.2211 53.0023C98.5359 51.5328 89.9508 51.1461 90.1055 50.45C90.3375 49.7539 101.088 47.8203 98.6133 44.6492ZM40.6055 52.925C33.5672 54.6266 27.5344 57.875 27.5344 57.875C27.5344 57.875 33.3352 52.3063 41.0695 50.45C47.1023 48.9805 55.4555 50.9914 55.4555 50.9914C55.4555 50.9914 47.5664 51.2234 40.6055 52.925ZM42.9258 45.268C35.8875 46.9695 29.8547 50.218 29.8547 50.218C29.8547 50.218 35.6555 44.6492 43.3898 42.793C49.4227 41.3234 57.7758 43.3344 57.7758 43.3344C57.7758 43.3344 49.8867 43.5664 42.9258 45.268ZM45.3234 37.6109C38.2852 39.3125 32.2523 42.5609 32.2523 42.5609C32.2523 42.5609 38.0531 36.9922 45.7875 35.1359C51.8203 33.6664 60.1734 35.6773 60.1734 35.6773C60.1734 35.6773 52.2844 35.9094 45.3234 37.6109ZM66.0516 45.1133C66.3609 53.9305 69.9961 64.9133 70.1508 66.4602C69.3773 67.2336 63.6539 52.6156 63.9633 45.8094C64.35 37.1469 70.3828 26.3961 72.2391 26.6281C72.1617 28.0977 65.6648 35.5227 66.0516 45.1133ZM79.1227 45.1133C76.493 45.1133 74.3273 42.8703 74.3273 40.1633C74.3273 37.3789 76.493 35.2133 79.1227 35.2133C81.7523 35.2133 83.918 37.4563 83.918 40.1633C83.918 42.9477 81.7523 45.1133 79.1227 45.1133Z" fill="white"/>
</svg>
